<svg xmlns="http://www.w3.org/2000/svg" xmlns:xlink="http://www.w3.org/1999/xlink" version="1.1" x="0px" y="0px" viewBox="0 0 100 125" style="enable-background:new 0 0 100 100;" xml:space="preserve"><style type="text/css">
	.st0{fill-rule:evenodd;clip-rule:evenodd;}
</style><g><path d="M76.45,11.095H29.594c-4.159,0-7.54,3.382-7.54,7.537v62.731c0,4.159,3.382,7.54,7.54,7.54H76.45   c0.827,0,1.497-0.669,1.497-1.497V12.592C77.947,11.765,77.277,11.095,76.45,11.095z M29.594,85.911   c-2.508,0-4.547-2.039-4.547-4.547v-2.171c0-2.508,2.04-4.547,4.547-4.547h45.36v11.266H29.594z M35.608,23.28   c0-0.827,0.67-1.496,1.496-1.496h31.776c0.827,0,1.497,0.669,1.497,1.496c0,0.827-0.669,1.497-1.497,1.497H37.104   C36.278,24.776,35.608,24.106,35.608,23.28z M35.608,30.975c0-0.827,0.67-1.497,1.496-1.497h31.776   c0.827,0,1.497,0.669,1.497,1.497c0,0.827-0.669,1.496-1.497,1.496H37.104C36.278,32.471,35.608,31.802,35.608,30.975z"/></g><text x="0" y="115" fill="#000000" font-size="5px" font-weight="bold" font-family="'Helvetica Neue', Helvetica, Arial-Unicode, Arial, Sans-serif">Created by Matheus Oliveira de Fraga</text><text x="0" y="120" fill="#000000" font-size="5px" font-weight="bold" font-family="'Helvetica Neue', Helvetica, Arial-Unicode, Arial, Sans-serif">from the Noun Project</text></svg>