<svg xmlns="http://www.w3.org/2000/svg" xmlns:xlink="http://www.w3.org/1999/xlink" version="1.1" x="0px" y="0px" viewBox="0 0 100 125" enable-background="new 0 0 100 100" xml:space="preserve"><g display="none"><path display="inline" fill="#000000" d="M94,21c0,8.837-7.164,16-16,16s-16-7.163-16-16S69.164,5,78,5S94,12.163,94,21z M22,34   c-8.836,0-16,7.163-16,16s7.164,16,16,16s16-7.163,16-16S30.836,34,22,34z M78,63c-8.836,0-16,7.163-16,16s7.164,16,16,16   s16-7.163,16-16S86.836,63,78,63z M38.875,43.798l24.552-12.275c-0.782-1.079-1.459-2.238-1.988-3.478L37.09,40.219   C37.814,41.333,38.409,42.533,38.875,43.798z M63.043,69.001l-24.255-12.56c-0.484,1.257-1.091,2.453-1.831,3.557l24.255,12.561   C61.696,71.302,62.303,70.105,63.043,69.001z"/></g><g display="none"><line display="inline" fill="#000000" stroke="#E00C02" stroke-width="4" stroke-miterlimit="10" x1="37.206" y1="56.366" x2="62.788" y2="69.631"/><line display="inline" fill="#000000" stroke="#E00C02" stroke-width="4" stroke-miterlimit="10" x1="62.581" y1="29.942" x2="37.419" y2="42.058"/><circle display="inline" fill="#000000" stroke="#E00C02" stroke-width="4" stroke-miterlimit="10" cx="77" cy="77" r="16"/><circle display="inline" fill="#000000" stroke="#E00C02" stroke-width="4" stroke-miterlimit="10" cx="23" cy="49" r="16"/><circle display="inline" fill="#000000" stroke="#E00C02" stroke-width="4" stroke-miterlimit="10" cx="77" cy="23" r="16"/></g><g><path d="M77,59c-6.225,0-11.719,3.178-14.952,7.994L39.784,55.451C40.559,53.445,41,51.276,41,49c0-2.087-0.376-4.084-1.032-5.95   l21.804-10.498C64.96,37.617,70.586,41,77,41c9.925,0,17.999-8.075,17.999-18S86.925,5,77,5s-18,8.075-18,18   c0,2.087,0.376,4.084,1.032,5.951L38.229,39.449C35.04,34.384,29.414,31,23,31c-9.925,0-18,8.075-18,18s8.075,18,18,18   c6.225,0,11.719-3.178,14.952-7.994L60.216,70.55C59.441,72.556,59,74.725,59,77c0,9.925,8.075,18,18,18s17.999-8.075,17.999-18   S86.925,59,77,59z M77,9c7.72,0,14,6.28,14,14s-6.28,14-14,14s-14-6.28-14-14S69.28,9,77,9z M23,63c-7.72,0-14-6.28-14-14   s6.28-14,14-14s14,6.28,14,14S30.72,63,23,63z M77,91c-7.72,0-14-6.28-14-14s6.28-14,14-14s14,6.28,14,14S84.72,91,77,91z"/></g><text x="0" y="115" fill="#000000" font-size="5px" font-weight="bold" font-family="'Helvetica Neue', Helvetica, Arial-Unicode, Arial, Sans-serif">Created by Yuri Mazursky</text><text x="0" y="120" fill="#000000" font-size="5px" font-weight="bold" font-family="'Helvetica Neue', Helvetica, Arial-Unicode, Arial, Sans-serif">from the Noun Project</text></svg>